<?xml version="1.0" standalone="no"?>
<!DOCTYPE svg PUBLIC "-//W3C//DTD SVG 20010904//EN"
 "http://www.w3.org/TR/2001/REC-SVG-20010904/DTD/svg10.dtd">
<svg version="1.0" xmlns="http://www.w3.org/2000/svg"
 width="474.000000pt" height="474.000000pt" viewBox="0 0 474.000000 474.000000"
 preserveAspectRatio="xMidYMid meet">
<metadata>
Created by potrace 1.11, written by Peter Selinger 2001-2013
</metadata>
<g transform="translate(0.000000,474.000000) scale(0.100000,-0.100000)"
fill="#000000" stroke="none">
<path d="M2165 4275 c-5 -2 -104 -6 -220 -9 -115 -3 -226 -8 -245 -10 -19 -3
-59 -8 -89 -11 -97 -12 -129 -18 -234 -49 -82 -24 -190 -72 -224 -99 -142
-113 -178 -205 -168 -426 3 -75 8 -194 10 -266 3 -71 7 -188 10 -260 3 -71 7
-195 10 -275 2 -80 7 -185 10 -235 2 -49 7 -144 10 -210 10 -219 20 -420 31
-595 3 -41 6 -106 9 -145 7 -138 16 -250 21 -275 2 -14 7 -38 10 -53 16 -91
99 -235 176 -307 65 -60 74 -67 135 -109 64 -43 253 -141 274 -141 6 0 23 -6
37 -14 37 -19 110 -46 282 -101 80 -26 168 -55 195 -65 28 -10 81 -25 118 -35
73 -18 69 -19 182 31 22 10 42 18 45 18 10 2 116 41 170 64 14 5 52 20 85 32
33 11 78 29 100 39 22 10 79 35 126 55 160 66 276 140 364 231 135 141 189
260 199 442 18 324 27 568 41 1158 2 105 7 318 11 475 4 157 8 384 8 505 1
208 0 222 -21 267 -13 26 -23 51 -23 54 0 15 -85 105 -118 125 -20 13 -39 26
-42 30 -10 13 -142 66 -215 86 -59 16 -151 34 -200 38 -33 3 -80 8 -105 12
-84 11 -95 12 -190 18 -109 6 -560 14 -575 10z"/>
</g>
</svg>
